# xmcd
#
# Track frame offsets:
#	150
#	3345
#	20752
#	34675
#	52082
#	71299
#	88427
#	104160
#	119337
#	137858
#	151781
#	171137
#	188544
#	204697
#	222660
#	242574
#	259422
#	273902
#	287128
#	300773
#	315533
#	330710
#
# Disc length: 4674 seconds
#
# Revision: 83213141
# Processed by: cddbd v1.5.1PL0 Copyright (c) Steve Scherf et al.
# Submitted via: EasyCDDAExtractor 8.0.2.1
#
DISCID=45124016
DTITLE=Various Artist - The Massacre
DYEAR=2005
DGENRE=Rap
TTITLE0=50 Cent - Intro
TTITLE1=50 Cent - In My Hood
TTITLE2=50 Cent - This Is 50
TTITLE3=50 Cent - I'm Supposed To Die Tonight
TTITLE4=50 Cent - Piggy Bank
TTITLE5=50 Cent - Gatman And Robbin (Featuring Eminem)
TTITLE6=50 Cent - Candy Shop (Featuring Olivia)
TTITLE7=50 Cent - Outta Control
TTITLE8=50 Cent - Get In My Car
TTITLE9=50 Cent - Ski Mask Way
TTITLE10=50 Cent - A Baltimore Love Thing
TTITLE11=50 Cent - Ryder Music
TTITLE12=50 Cent - Disco Inferno
TTITLE13=50 Cent - Just A Lil Bit
TTITLE14=50 Cent - Gunz Come Out
TTITLE15=50 Cent - My Toy Soldier (Featuring Tony Yayo)
TTITLE16=50 Cent - Position Of Power
TTITLE17=50 Cent - Build You Up (Featuring Jamie Foxx)
TTITLE18=50 Cent - God Gave Me Style
TTITLE19=50 Cent  - So Amazing (Featuring Olivia)
TTITLE20=50 Cent - I Don't Need 'Em
TTITLE21=50 Cent - Hate It Or Love It (G-Unit Remix) (Featuring The Game, Tony
TTITLE21=Yayo, Young Buck and Lloyd Banks)
EXTD=
EXTT0=
EXTT1=
EXTT2=
EXTT3=
EXTT4=
EXTT5=
EXTT6=
EXTT7=
EXTT8=
EXTT9=
EXTT10=
EXTT11=
EXTT12=
EXTT13=
EXTT14=
EXTT15=
EXTT16=
EXTT17=
EXTT18=
EXTT19=
EXTT20=
EXTT21=
PLAYORDER=
